# xmcd
#
# Track frame offsets:
#	150
#	10010
#	21571
#	33599
#	46296
#	59651
#	70920
#	83090
#	95121
#	107594
#	119379
#	131430
#	141999
#	152963
#	164946
#	178054
#	188639
#	197758
#	209295
#	219533
#	230580
#	242642
#	253801
#
# Disc length: 3515 seconds
# Revision: 2
# Processed by: cddbd v1.5.2PL0 Copyright (c) Steve Scherf et al.
# Submitted via: dBpowerAMP V12.0
#
DISCID=5d0db917
DTITLE=Ernest Tubb - Ernest Tubb Record Shop - Ernest Tubb And His Troubadors
DYEAR=1960
DGENRE=Classic Country
TTITLE0=do it know
TTITLE1=he'll have to go
TTITLE2=mister blues
TTITLE3=you win again
TTITLE4=i believe i'm entitled to you
TTITLE5=who will buy the wine
TTITLE6=white silver sands
TTITLE7=am i that easy to forget
TTITLE8=a guy named joe
TTITLE9=the kind of love she gave to me
TTITLE10=pick me up on your way down
TTITLE11=why i'm walkin'
TTITLE12=the yellow rose of texas
TTITLE13=i'll step aside
TTITLE14=drivin' nails in my coffin
TTITLE15=till we two are one
TTITLE16=kansas city blues
TTITLE17=don't forbid me
TTITLE18=two glasses joe
TTITLE19=journey's end
TTITLE20=it's a lonely world
TTITLE21=there's a little bit of everything in texas
TTITLE22=jealous loving heart
EXTD=
EXTT0=
EXTT1=
EXTT2=
EXTT3=
EXTT4=
EXTT5=
EXTT6=
EXTT7=
EXTT8=
EXTT9=
EXTT10=
EXTT11=
EXTT12=
EXTT13=
EXTT14=
EXTT15=
EXTT16=
EXTT17=
EXTT18=
EXTT19=
EXTT20=
EXTT21=
EXTT22=
PLAYORDER=
